<?xml version="1.0" encoding="UTF-8" standalone="no"?>
<svg
   id="Layer_2"
   data-name="Layer 2"
   viewBox="0 0 48 48"
   version="1.1"
   sodipodi:docname="calendarcolor.svg"
   inkscape:version="1.2.2 (b0a8486541, 2022-12-01)"
   xmlns:inkscape="http://www.inkscape.org/namespaces/inkscape"
   xmlns:sodipodi="http://sodipodi.sourceforge.net/DTD/sodipodi-0.dtd"
   xmlns="http://www.w3.org/2000/svg"
   xmlns:svg="http://www.w3.org/2000/svg">
  <sodipodi:namedview
     id="namedview15"
     pagecolor="#ffffff"
     bordercolor="#000000"
     borderopacity="0.25"
     inkscape:showpageshadow="2"
     inkscape:pageopacity="0.0"
     inkscape:pagecheckerboard="0"
     inkscape:deskcolor="#d1d1d1"
     showgrid="false"
     inkscape:zoom="11.829307"
     inkscape:cx="22.824668"
     inkscape:cy="23.458686"
     inkscape:window-width="1920"
     inkscape:window-height="1012"
     inkscape:window-x="0"
     inkscape:window-y="1407"
     inkscape:window-maximized="1"
     inkscape:current-layer="Layer_2" />
  <defs
     id="defs4">
    <style
       id="style2">.cls-1{fill:none;stroke:#000;stroke-linecap:round;stroke-linejoin:round;}</style>
  </defs>
  <path
     class="cls-1"
     d="M24,5.38a13,13,0,0,0-13,13v0a12.93,12.93,0,0,1,13,0,12.93,12.93,0,0,1,13,0,13,13,0,0,0-13-13Z"
     id="path6" />
  <path
     class="cls-1"
     d="M11,18.39A13,13,0,1,0,24,40.87,13,13,0,0,1,17.5,29.64v0A13,13,0,0,1,11,18.39Z"
     id="path8" />
  <path
     class="cls-1"
     d="M37,18.39a13,13,0,0,1-6.5,11.24h0A13,13,0,0,1,24,40.86,13,13,0,1,0,37,18.4Z"
     id="path10" />
  <path
     class="cls-1"
     d="M24,18.39a13,13,0,0,0-6.49,11.24,12.93,12.93,0,0,0,13,0A13,13,0,0,0,24,18.39Z"
     id="path12" />
  <path
     style="fill:#ff0000;stroke:#000000;stroke-width:0.249086"
     d="m 23.252802,17.392386 c -1.210985,-0.59063 -2.888729,-1.061475 -4.346337,-1.219762 -2.240953,-0.243355 -4.870175,0.170507 -6.846689,1.077728 -0.575377,0.264099 -0.540673,0.320411 -0.397992,-0.645803 0.858644,-5.814586 5.62715,-10.2370731 11.489761,-10.6560244 5.948156,-0.4250644 11.422477,3.5338036 12.920503,9.3437274 0.147379,0.571593 0.361327,1.81546 0.361327,2.100711 0,0.06029 -0.138142,0.02034 -0.493151,-0.142611 -0.874275,-0.401293 -2.11617,-0.777815 -3.153175,-0.95599 -2.682334,-0.460873 -5.605583,-0.06298 -8.040469,1.094402 -0.387358,0.184125 -0.733978,0.332421 -0.770266,0.329545 -0.03629,-0.0029 -0.361868,-0.14954 -0.723512,-0.325923 z"
     id="path313" />
  <path
     style="fill:#0000ff;stroke:#000000;stroke-width:0.249086"
     d="M 15.364903,42.321528 C 10.809461,41.671699 7.058028,38.7643 5.3807078,34.583677 4.6890611,32.859787 4.3721256,30.855691 4.5120597,29.090906 4.7531815,26.049988 6.002287,23.299 8.0996264,21.18977 8.9061223,20.378701 10.36326,19.249935 10.468249,19.354924 c 0.01956,0.01956 0.06099,0.272454 0.09206,0.561988 0.112007,1.04362 0.392397,2.190227 0.806857,3.299505 0.958417,2.565154 2.805152,4.871051 5.166481,6.451047 l 0.453948,0.303742 0.03729,0.675667 c 0.136547,2.474372 1.12338,5.066225 2.749402,7.221122 0.56332,0.746545 1.779645,1.949723 2.538016,2.510585 0.333407,0.246576 0.607441,0.464286 0.608964,0.483801 0.0038,0.04832 -1.184232,0.601457 -1.700842,0.791909 -0.661382,0.243823 -1.420559,0.447469 -2.173562,0.583048 -0.912735,0.164338 -2.815157,0.207838 -3.681958,0.08419 z"
     id="path386" />
  <path
     style="fill:#00ffff;stroke:#000000;stroke-width:0.249086"
     d="m 23.456448,39.890544 c -2.670528,-1.862037 -4.54542,-4.690951 -5.16351,-7.790918 -0.199236,-0.999248 -0.252203,-1.55399 -0.144003,-1.508195 2.321427,0.982524 3.760097,1.29898 5.905423,1.29898 1.827521,0 3.602174,-0.358089 5.226118,-1.054524 0.268341,-0.115079 0.524657,-0.224862 0.56959,-0.243963 0.194165,-0.08254 -0.124707,1.691963 -0.523355,2.912435 -0.689257,2.110176 -1.952957,4.001031 -3.696589,5.53115 -0.546632,0.479695 -1.514058,1.163744 -1.645841,1.163744 -0.0468,0 -0.284321,-0.138919 -0.527833,-0.308709 z"
     id="path457" />
  <path
     style="fill:#ff00ff;stroke:#000000;stroke-width:0.249086"
     d="M 16.461519,28.295284 C 16.186089,28.091066 15.681782,27.653038 15.340836,27.321889 14.239316,26.25202 13.494884,25.227621 12.818219,23.85056 12.059342,22.306191 11.6838,20.872036 11.547808,18.998993 l -0.02241,-0.308604 0.696272,-0.333107 c 1.175288,-0.562276 2.516824,-0.951337 3.844082,-1.114827 0.756669,-0.09321 2.821371,-0.04321 3.501733,0.08479 0.823089,0.154854 1.798267,0.435125 2.511921,0.721938 0.370125,0.14875 0.712512,0.292593 0.76086,0.31965 0.06605,0.03696 -0.05008,0.152199 -0.46709,0.463473 -0.648858,0.484339 -1.751471,1.535271 -2.297589,2.189897 -1.569255,1.881046 -2.654393,4.390669 -2.978817,6.889173 -0.05095,0.392354 -0.102045,0.722785 -0.113552,0.734293 -0.01151,0.01151 -0.246273,-0.146167 -0.521703,-0.350386 z"
     id="path528" />
  <path
     style="fill:#00ff00;stroke:#000000;stroke-width:0.249086"
     d="m 29.88792,42.434198 c -1.277088,-0.181137 -2.079287,-0.372316 -2.999673,-0.71488 -0.712059,-0.265026 -1.824859,-0.797629 -1.800237,-0.861622 0.0098,-0.0255 0.211109,-0.191259 0.447322,-0.368342 1.764373,-1.322709 3.087107,-2.896856 4.054053,-4.824612 0.804148,-1.603192 1.295985,-3.386207 1.387401,-5.029624 l 0.03824,-0.687422 0.518856,-0.341671 c 3.041585,-2.002911 5.153039,-5.269359 5.801917,-8.975645 0.06257,-0.3574 0.114134,-0.733988 0.114583,-0.836861 0.0013,-0.302671 0.06386,-0.466945 0.163248,-0.428806 0.225688,0.08661 1.17109,0.772613 1.749734,1.269653 3.366339,2.891597 4.934476,7.50832 4.03647,11.883691 -0.565344,2.75453 -2.088895,5.288668 -4.276673,7.113433 -1.258405,1.0496 -2.861576,1.899446 -4.449617,2.358754 -1.231615,0.356219 -1.80088,0.435298 -3.261338,0.453045 -0.739726,0.009 -1.425654,0.0049 -1.524284,-0.0091 z"
     id="path668" />
  <path
     style="fill:#ffff00;stroke:#000000;stroke-width:0.249086"
     d="m 30.938087,28.047139 c -0.450082,-3.733637 -2.431165,-7.130743 -5.424901,-9.30247 -0.344694,-0.25005 -0.425793,-0.335353 -0.355971,-0.374427 0.261599,-0.146398 1.493316,-0.605026 1.983642,-0.738605 1.172998,-0.31956 1.675842,-0.392049 2.967087,-0.427728 1.312706,-0.03627 1.955645,0.01368 2.977984,0.231383 0.831307,0.177021 1.899816,0.542806 2.690242,0.920958 l 0.694115,0.332076 -0.02138,0.369411 c -0.20549,3.551013 -1.953877,6.90179 -4.756657,9.116112 -0.725508,0.573184 -0.668643,0.582738 -0.754165,-0.12671 z"
     id="path670" />
  <path
     style="fill:#ffffff;stroke:#000000;stroke-width:0.352261"
     d="m 22.106113,30.687378 c -1.257081,-0.215302 -2.476985,-0.604672 -3.495167,-1.11559 l -0.578682,-0.29038 0.05806,-0.60776 c 0.278509,-2.915214 1.458966,-5.546983 3.405555,-7.592514 0.677811,-0.712264 2.283235,-2.01831 2.480956,-2.01831 0.227697,0 1.475981,0.978626 2.31788,1.817165 2.133646,2.125128 3.503476,5.106813 3.608602,7.854781 l 0.02235,0.584346 -0.549482,0.278932 c -0.803238,0.407746 -2.45205,0.926781 -3.433788,1.080932 -1.019085,0.160016 -2.926663,0.164192 -3.836292,0.0084 z"
     id="path312" />
</svg>
